HIERARCHY
ROOT Hips
{
     OFFSET 39.01620 94.05090 3.22090
     CHANNELS 6 Xposition Yposition Zposition Zrotation Xrotation Yrotation
     JOINT Spine
     {
          OFFSET 0.00000 11.89050 0.00000
          CHANNELS 3 Zrotation Xrotation Yrotation
          JOINT Spine1
          {
               OFFSET 0.00000 25.65740 0.12766
               CHANNELS 3 Zrotation Xrotation Yrotation
               JOINT HEad
               {
                    OFFSET -0.00000 8.73416 0.01134
                    CHANNELS 3 Zrotation Xrotation Yrotation
                    End Site
                    {
                         OFFSET -0.29000 12.77420 2.51395
                    }
               }
               JOINT LeftShoulder1
               {
                    OFFSET 8.99000 -0.36225 -0.22000
                    CHANNELS 3 Zrotation Xrotation Yrotation
                    JOINT LeftArm
                    {
                         OFFSET 10.28270 -0.00338 0.32212
                         CHANNELS 3 Zrotation Xrotation Yrotation
                         JOINT LeftForeArm
                         {
                              OFFSET 32.76690 0.09914 -1.42434
                              CHANNELS 3 Zrotation Xrotation Yrotation
                              JOINT LeftHand
                              {
                                   OFFSET 27.56430 0.08536 1.02216
                                   CHANNELS 3 Zrotation Xrotation Yrotation
                                   End Site
                                   {
                                        OFFSET 16.74430 -0.60000 1.50291
                                   }
                              }
                         }
                    }
               }
               JOINT RightShoulder
               {
                    OFFSET -8.99000 -0.36225 -0.22000
                    CHANNELS 3 Zrotation Xrotation Yrotation
                    JOINT RightArm
                    {
                         OFFSET -10.28270 -0.00338 0.32212
                         CHANNELS 3 Zrotation Xrotation Yrotation
                         JOINT RightForeArm
                         {
                              OFFSET -32.89710 0.09914 -1.42434
                              CHANNELS 3 Zrotation Xrotation Yrotation
                              JOINT RightHand
                              {
                                   OFFSET -27.49210 0.08536 1.02216
                                   CHANNELS 3 Zrotation Xrotation Yrotation
                                   End Site
                                   {
                                        OFFSET -16.63120 -0.60000 1.50291
                                   }
                              }
                         }
                    }
               }
          }
     }
     JOINT LeftUpLeg
     {
          OFFSET 8.94580 -8.66707 0.10165
          CHANNELS 3 Zrotation Xrotation Yrotation
          JOINT LeftLeg
          {
               OFFSET -0.00000 -44.42270 1.37270
               CHANNELS 3 Zrotation Xrotation Yrotation
               JOINT LeftFoot
               {
                    OFFSET -0.25355 -42.09240 -1.46059
                    CHANNELS 3 Zrotation Xrotation Yrotation
                    JOINT LeftToes
                    {
                         OFFSET -0.04000 -4.41509 8.49910
                         CHANNELS 3 Zrotation Xrotation Yrotation
                         End Site
                         {
                              OFFSET 0.08000 -0.04745 9.77979
                         }
                    }
               }
          }
     }
     JOINT RightUpLeg
     {
          OFFSET -8.94580 -8.66707 0.10165
          CHANNELS 3 Zrotation Xrotation Yrotation
          JOINT RightLeg
          {
               OFFSET -0.00000 -44.42270 1.37270
               CHANNELS 3 Zrotation Xrotation Yrotation
               JOINT RightFoot
               {
                    OFFSET 0.25355 -42.09240 -1.46059
                    CHANNELS 3 Zrotation Xrotation Yrotation
                    JOINT RightToes
                    {
                         OFFSET 0.04000 -4.41509 8.49910
                         CHANNELS 3 Zrotation Xrotation Yrotation
                         End Site
                         {
                              OFFSET -0.08000 -0.13745 9.77979
                         }
                    }
               }
          }
     }
}
MOTION
Frames: 10
Frame Time: 0.01667
41.22400 87.93190 27.84340 -17.52070 -5.77229 -65.92690 -2.38806 15.48850 -2.47086 3.22318 30.58240 -7.65011 5.54613 -8.13689 -0.14156 -0.00000 0.00000 -0.00000 -60.36100 -9.24495 -60.88200 -32.00830 -1.04083 -81.36550 16.52200 7.27101 -14.64940 26.18990 0.75587 0.41615 54.14520 -21.60390 40.59730 -10.82400 22.73200 81.58170 21.27730 11.40320 3.52979 36.85640 -4.10852 -25.10100 -36.32190 17.42330 76.12780 -4.70976 8.44687 0.59362 -3.62215 -40.06900 -69.71600 -30.63860 -6.47517 0.96598 40.63970 20.46560 -38.09350 -36.90770 10.84370 6.10660 0.04620 0.00053 0.66264 
41.28260 88.08690 26.15720 -17.68290 -7.60983 -62.65560 -2.41034 15.17050 -2.06156 2.36370 30.01450 -6.35039 4.37871 -7.59736 1.78721 -0.00000 0.00000 -0.00000 -62.76320 -13.43580 -60.72460 -32.36720 4.04549 -81.01490 17.98490 6.94243 -15.17140 24.37950 0.71142 0.38955 56.21770 -21.64640 43.73510 -10.34440 23.36320 84.56830 21.02250 11.40500 3.63324 36.46570 -4.10175 -25.07880 -36.29920 15.86980 76.35600 -4.52432 9.12109 0.58997 -2.64397 -38.54160 -68.70110 -31.61770 -4.60765 1.68971 41.95820 19.52500 -40.87720 -37.23530 9.21860 5.61223 0.04620 0.00053 0.66264 
41.30260 88.43980 24.73730 -17.60970 -9.32291 -59.71320 -2.72311 14.86690 -1.57144 1.57250 29.49270 -5.10984 3.35711 -7.12026 3.41595 -0.00000 0.00000 -0.00000 -64.80180 -17.45330 -60.41270 -32.56920 8.78160 -80.77800 19.34270 6.61182 -15.72690 22.70810 0.65572 0.30116 58.13510 -21.77690 46.49340 -9.37553 23.93200 87.22720 20.60490 11.38310 3.67401 35.78870 -3.89163 -24.31670 -36.41290 15.20570 76.86040 -4.29805 9.58536 0.57140 -1.79291 -37.10890 -67.86540 -32.56210 -2.51760 2.53535 42.85960 17.85060 -42.39870 -36.95250 7.92797 5.13021 0.04620 0.00053 0.66264 
41.29450 88.96700 23.57370 -17.35230 -10.84960 -57.02600 -3.29191 14.56650 -1.02834 0.90329 28.98750 -3.98612 2.49631 -6.68296 4.72719 -0.00000 0.00000 -0.00000 -66.35110 -21.04570 -59.88650 -32.73380 12.77450 -80.71500 20.53260 6.31569 -16.17930 21.23440 0.59317 0.15497 59.89330 -21.88130 48.84120 -7.95271 24.50610 89.46220 20.13310 11.35380 3.69669 34.89450 -3.54609 -23.08500 -36.66290 15.48310 77.68750 -4.10429 9.76203 0.54755 -1.03199 -35.69470 -67.30230 -33.41120 -0.22253 3.52437 43.38790 15.51200 -42.79850 -36.20590 6.91836 4.68390 0.04620 0.00053 0.66264 
41.26800 89.61990 22.64650 -16.95160 -12.16200 -54.52510 -4.09756 14.25360 -0.45201 0.37343 28.47110 -3.01924 1.81382 -6.25464 5.73408 -0.00000 0.00000 -0.00000 -67.37100 -24.09600 -59.08510 -32.99730 15.90850 -80.76390 21.45480 6.10350 -16.39750 19.98840 0.52971 -0.03091 61.49730 -21.88230 50.74700 -6.14999 25.12360 91.24140 19.70870 11.33440 3.75733 33.87390 -3.12599 -21.73510 -37.02150 16.56940 78.82770 -3.97518 9.72683 0.52698 -0.34546 -34.29270 -67.03490 -34.11840 2.21204 4.64809 43.59080 12.64930 -42.23100 -35.17560 6.14885 4.29238 0.04620 0.00053 0.66264 
41.22790 90.32530 21.92630 -16.43330 -13.26880 -52.17220 -5.14274 13.91840 0.15334 -0.02093 27.93310 -2.21909 1.32149 -5.82250 6.47349 -0.00000 0.00000 -0.00000 -67.93910 -26.65840 -58.01250 -33.43270 18.34030 -80.81220 22.00260 6.01686 -16.31260 18.97590 0.47240 -0.22411 62.95340 -21.74370 52.20920 -4.09655 25.78240 92.59820 19.41730 11.33750 3.89419 32.80430 -2.65357 -20.58610 -37.45550 18.20920 80.20810 -3.93284 9.62349 0.51767 0.30415 -32.88780 -66.94210 -34.67330 4.63959 5.88354 43.53360 9.52422 -40.86470 -34.01870 5.58833 3.96567 0.04620 0.00053 0.66264 
41.19600 91.03990 21.39070 -15.85450 -14.14020 -49.94290 -6.25313 13.56320 0.75040 -0.28112 27.37570 -1.57670 1.01905 -5.39880 6.98816 -0.00000 0.00000 -0.00000 -68.20360 -28.88840 -56.74770 -33.99170 20.35970 -80.78820 22.12740 6.06479 -15.94520 18.18920 0.42719 -0.38974 64.26310 -21.45880 53.27170 -1.98413 26.44880 93.63220 19.31350 11.36670 4.10499 31.80110 -2.07557 -19.87590 -37.89930 19.99570 81.65720 -3.96451 9.58691 0.52140 0.95955 -31.45830 -66.79460 -35.02320 7.04289 7.26303 43.22810 6.11428 -38.77320 -32.93030 5.37072 3.76315 0.04620 0.00053 0.66264 
41.14570 91.61590 20.98400 -15.11030 -14.91350 -47.80570 -7.67174 13.18580 1.37895 -0.51707 26.80070 -1.09045 0.89496 -5.00899 7.30924 -0.00000 0.00000 -0.00000 -68.29500 -30.92310 -55.40640 -34.52420 22.21220 -80.70000 21.87890 6.21639 -15.39270 17.61750 0.39716 -0.50354 65.42030 -21.03750 54.01450 -0.04092 27.07840 94.49140 19.40080 11.41530 4.34524 30.73570 -1.44990 -19.63280 -38.34800 21.80450 82.93810 -4.22403 9.65096 0.56230 1.59956 -30.09300 -66.36280 -35.27880 8.29994 8.41449 42.89420 4.61467 -36.69130 -31.39290 4.69563 3.38098 0.04620 0.00053 0.66264 
41.11960 92.06200 20.69280 -14.29410 -15.46350 -45.66770 -8.95741 12.79150 1.92062 -0.65984 26.19610 -0.76766 0.93254 -4.67541 7.44760 -0.00000 0.00000 -0.00000 -68.26950 -32.79270 -54.10590 -34.86260 23.98670 -80.61330 21.38980 6.41687 -14.78690 17.25000 0.38126 -0.56257 66.42040 -20.49750 54.53050 1.53495 27.63630 95.32900 19.62530 11.46930 4.55293 29.77540 -0.74849 -19.90790 -38.67890 23.22560 83.75750 -4.67559 9.81393 0.63594 2.09491 -29.09390 -65.52810 -35.26040 8.85992 9.49565 42.34540 4.11291 -34.50100 -29.75410 3.97319 2.99563 0.04620 0.00053 0.66264 
41.18990 92.45160 20.51370 -13.48110 -15.70860 -43.39640 -9.68869 12.39570 2.23909 -0.73173 25.54280 -0.62544 1.11190 -4.41403 7.39723 -0.00000 0.00000 -0.00000 -68.11540 -34.40430 -52.95660 -34.91250 25.60330 -80.59600 20.82230 6.61335 -14.24280 17.06870 0.37398 -0.58952 67.27630 -19.86290 54.90800 2.65351 28.10780 96.24730 19.89770 11.51410 4.68360 29.01680 0.07633 -20.70120 -38.68860 23.79270 83.86090 -5.14860 10.01260 0.71555 2.26520 -28.89850 -64.34200 -34.94370 9.21808 10.65080 41.55950 3.64987 -32.17230 -28.31910 3.55634 2.73279 0.04620 0.00053 0.66264 
